<svg xmlns="http://www.w3.org/2000/svg" xmlns:xlink="http://www.w3.org/1999/xlink" id="katman_1" x="0px" y="0px" viewBox="0 0 256.5 278.8" style="enable-background:new 0 0 256.5 278.8;" xml:space="preserve"><style type="text/css">	.st0{clip-path:url(#SVGID_2_);}	.st1{fill:#FFFFFF;}	.st2{fill:#506EB5;}	.st3{fill:#A72322;}	.st4{fill:#F15A4C;}	.st5{fill:#335A98;}</style><title>logo</title><g>	<defs>		<rect id="SVGID_1_" x="-579.9" y="-1541.5" width="1417.3" height="1913.4"></rect>	</defs>	<clipPath id="SVGID_2_">		<use xlink:href="#SVGID_1_" style="overflow:visible;"></use>	</clipPath>	<g class="st0">		<path class="st1" d="M457.4-338.2l1.6-8.9c0.3-1.5,0.5-2.9,0.6-4l2.6-0.3l-0.3,2.2l0,0c0.9-1.6,2.6-2.7,4.4-2.9   c1.3-0.3,2.6,0.5,2.9,1.8c0,0.2,0.1,0.3,0.1,0.5c0.9-1.7,2.6-2.8,4.5-3c1.7-0.2,3.1,0.8,3.1,3.1c0,0.7-0.1,1.5-0.2,2.2l-1.4,7.5   l-2.9,0.3l1.3-7.2c0.1-0.5,0.2-1.1,0.2-1.6c0-1.1-0.4-1.7-1.6-1.6c-1.4,0.1-2.9,2-3.4,4.8l-1.1,6.2l-2.9,0.3l1.4-7.3   c0.1-0.5,0.1-1,0.1-1.5c0-1-0.3-1.8-1.5-1.7c-1.4,0.1-3,2.2-3.5,4.8l-1.1,6.1L457.4-338.2z"></path>		<path class="st1" d="M500.9-350.4c0,4.3-3,8.3-7.3,8.7c-3.2,0.3-5.2-1.7-5.2-4.7c0-4.3,3-8.3,7.3-8.8   C499.1-355.4,500.9-353.2,500.9-350.4 M491.5-346.7c0,1.7,0.9,2.9,2.5,2.7c2.3-0.2,3.8-3.5,3.8-6c0-1.3-0.6-2.9-2.4-2.7   C492.9-352.5,491.5-349.1,491.5-346.7"></path>		<path class="st1" d="M515.2-356.8l0.8,6.2c0.2,1.5,0.3,2.4,0.4,3.3h0.1c0.3-0.8,0.7-1.8,1.4-3.4l3.1-6.7l3.3-0.4l-7,13.4l-3,0.3   l-2.2-12.4L515.2-356.8z"></path>		<path class="st1" d="M251.4,90.6c-0.3-0.9-0.6-1.8-1-2.6c-0.1-0.9-0.4-1.8-0.7-2.7c-1.8-5.4-4.2-10.6-6.9-15.5   c0.8-1.7,1.3-3.5,1.5-5.3c0.7-6.9-3.5-13.4-10-15.8c3.9-7.5,1-16.7-6.5-20.6c-3.7-1.9-8-2.2-11.9-0.9c-1.6,0.6-3.2,1.3-4.7,2.2   h-0.1c-2.3,1.5-5,2.3-7.8,2.4c-1.5,0-2.9-0.2-4.4-0.6c-2.6-0.7-5.2-1.3-7.9-1.7c-1.9-1.8-4.3-3.2-6.9-3.8   c-8-1.9-16.3-2.8-24.5-2.8c-12.2,0.1-24.2,1.9-35.8,5.5c-4.8-2.7-9.2-5.9-13.2-9.7C103.7,12,95.3,7,84.9,3.5   c-1.3-0.5-2.6-0.8-3.7-1.1L80.1,2C72-0.4,63.5,4.3,61.1,12.3c-0.9,3-0.8,6.2,0.2,9.1c1.2,3.5,3.5,6.5,6.6,8.5   c1,0.6,1.9,1.3,2.8,1.8c1.9,1.2,3.7,2.4,5.3,3.6c2.3,1.8,4.3,3.9,6.1,6.3c-29.7,18.1-53.2,44.8-67.4,76.5   c-6.9,15.4-11,31.9-12.2,48.7c-1.2,16,0.9,32,6.1,47.1c9.5,27.3,30.9,48.8,58.1,58.5c11.8,4.2,24.2,6.3,36.6,6.2   c27.2,0,55.6-9.4,80.5-26.5l38.3-3.9c6.8-0.7,12.4-5.8,13.5-12.6l5.7-33.4c0.8-4.5-0.6-9.2-3.7-12.6l-1-1.1   c7.8-13.6,13.3-28.4,16.4-43.8C256.6,126,256,107.3,251.4,90.6"></path>		<path class="st2" d="M168.4,66.1c1.9-0.5,3.7-1.1,5.4-2c1.5-0.8,3-1.6,4.3-2.6c-2.2-0.2-4.3-0.2-6.5,0c-1.6,0.2-3.1,0.6-4.6,1.1   c-1.6,0.5-2.9,1.6-3.8,3c0.8,0.4,1.6,0.6,2.4,0.7C166.5,66.4,167.5,66.4,168.4,66.1"></path>		<path class="st2" d="M138.1,43c5.1,2.5,9.4,6.4,12.4,11.2c0.4-1.5,1-2.9,1.8-4.2c1.7-3,4.1-5.5,6.9-7.5c6-4.3,13-6.9,21.4-7.8   c1.1-0.1,2.2-0.2,3.3-0.2c-17.8-4.3-37.6-3.2-57,2.9C130.3,39.1,134.2,41.1,138.1,43"></path>		<path class="st2" d="M117.5,159.3c0.4-0.2,0.9-0.4,1.4-0.7c0.2-0.2,0.4-0.3,0.5-0.6c1.5-2,3-4.1,4.6-6.1c3-3.9,5.7-8.1,7.8-12.6   c0.4-0.7,0.9-1.6,0.2-2.4s-1.6-0.4-2.3-0.1c-2.8,1.1-5.4,2.3-7.4,4.9c-1.5,1.7-2.7,3.5-3.7,5.5c-1.1,2.8-1.8,5.8-2,8.8   c0.1,0.6,0.2,1.2,0.3,1.8C117.1,158.5,117.3,158.9,117.5,159.3"></path>		<path class="st2" d="M119.3,173.6c-1-1-1.5-1.1-2.4-0.1c-0.5,0.5-0.9,1.1-1.3,1.7c-1,1.5-2,3-2.9,4.6c-1.2,1.9-2.2,3.9-3,6   c-0.2,0.6-0.3,1.2-0.5,1.7c0,2.4,1.4,4.8,4.4,3.8c0.8-0.2,1.5-0.5,2.2-0.8c2.3-1.1,4.5-2.5,6.5-4.2c1.3-1.1,2.4-2.4,3.6-3.6   c1-1,0.8-1.2,0-2.1C123.7,178.4,121.5,176,119.3,173.6"></path>		<path class="st2" d="M243.4,91.9c0.2,2.2-0.3,4.4-1.3,6.3c-3.5,6.4-8.5,11.9-14.6,16c-3.4,2.2-6.5,4.7-9.8,7.1   c-0.8,0.6-1.7,1.2-2.7,1.6c-0.6,0.4-1.4,0.5-2.1,0.3c-2.1-0.8-4.2-1.7-5.2-3.9c-0.5-1.1-1.2-2.1-1.7-3.2c-0.9-1.9-0.4-3.3,1.4-4.6   c2.9-1.9,5.8-3.7,8.7-5.6c5.6-3.5,10.3-8.3,13.8-13.8c0.9-1.4,0.6-1.8-0.9-2c-3.1-0.1-6.3,0.5-9.2,1.7   c-9.7,3.5-18.7,8.7-26.7,15.2c-5.5,4.6-11.2,8.9-16,14.3c-3.7,4.1-7.4,8.2-10.1,13c-0.9,1.6-2,2.9-2.9,4.5   c-0.6,0.7-0.4,1.8,0.3,2.4c0.4,0.3,0.9,0.4,1.4,0.3c1.9-0.1,3.8-0.4,5.7-0.9c3.6-1.1,7.1-2.3,10.6-3.7c1.3-0.6,2.6-1.4,3.7-2.4   c5.1-3.9,10.6-7.3,16.4-10c0.4-0.2,0.8-0.4,1.2-0.5c1-0.4,2.1-0.2,2.9,0.5c2.2,2,3.9,4.5,5,7.3c0.8,1.7,0.3,3.7-1.1,4.9   c-1.4,1.6-3,2.9-4.7,4.1c-4.4,2.8-8.6,5.9-12.5,9.4c-6.3,5.3-12.5,10.8-16.9,17.7c-3.1,4.8-5.7,9.8-8.6,14.7   c-0.1,0.1-0.1,0.3-0.1,0.4c-0.6,2.3-1.7,4.4-1.3,6.9c2.4,1.2,4.7,0.1,6.9-0.5c1.9-0.5,3.7-1.2,5.4-2.1c4-1.9,7.9-4.2,12-6   s7.6-4.8,11.1-7.6c7.7-5.9,14.7-12.6,21-20c2.2-2.6,4.7-5,7.1-7.5c0.4-0.2,0.8-0.3,1.2-0.3c0.1,0,0.3,0.5,0.3,0.8   c-0.2,2.5-0.5,5-0.8,7.6c0,0.3-0.2,0.6-0.3,0.9c-0.4,1.9,0.6,3.9-0.6,5.7c-1,1.5-1.7,3.1-2.2,4.9c-0.9,2.4-2.4,4.5-4.3,6.2   c-6.2,6.3-12.9,12-20,17.2c-0.9,0.6-1.8,1.1-2.7,1.6c-4,2-8,4-12,6.1c-2.5,1.3-5.2,2.2-8,2.6c-2.9,0.5-5.9,0.8-8.9,1   c-0.9,0.1-1.8,0.1-2.6-0.2c-3.6-1.4-7.1-3-9.5-6.4c-3.9-5.4-5.6-11.2-4.3-17.7c1.2-5.8,3.9-10.9,6.9-15.9c0.6-0.7,1-1.4,1.5-2.2   c0.9-2.7,3.6-4.4,4.3-7.2c-2.4-1.2-4.8-2.4-7.1-3.7c-2.3-1.2-4.1-3.2-5-5.6c-1-2.6-2.6-5-3-7.9c-0.5-2.7,0-5.4,1.4-7.7   c4.1-7,9-13.4,14.7-19.1c4.7-4.8,9.7-9.3,15.1-13.3c6.1-4.6,12.2-9.1,19.3-12c4.1-1.7,8.4-3.2,12.7-4.4c2-0.6,4.1-0.4,6.6-0.6   c1.1-0.1,2.1-0.1,3.2,0c2.5,0.2,4.9,1.1,7,2.6c2.5,1.8,5.2,3.4,7.5,5.6c0.7,0.7,1.3,1.5,1.8,2.4c-3-8.8-7.5-17.1-13.2-24.4   c-5.1,0.7-10,2.6-14.2,5.6c-1.7,1.3-3.4,2.7-4.9,4.3c-8.3,8.6-19.3,13.9-31.2,15c-2.3,0.2-4.7,0.2-7.1,0c-2.8-0.3-5.6-1.1-8.2-2.3   c-2.4-1.1-4.5-2.7-6.1-4.7l0.1,1.3c0.1,0.5,0.2,0.9,0.3,1.4c0.5,2.6,0.6,5.3,0.6,7.9c-0.1,4.6-0.3,9.3-0.5,13.8   c-0.1,1-0.1,2-0.1,3.1c0,0.6,0,1.2,0,1.7c0,0.1,0,0.2-0.1,0.4c0,0.5-0.2,1-0.3,1.4c0,0,0,0.1,0,0.1h-0.1c-0.6,1-1.6,1.7-2.8,1.8   c-2.8,0.7-5.7,1.1-8.5,1.4c-5,0.3-10,0.8-14.9,1.6c-6.2,1-12.5,2.1-18.7,3.1c-1.2,0.2-2.3,0.5-3.5,0.8c-4.3,0.9-4.3,0.9-6.3,4.4   c-0.5,0.9-1,1.8-1.5,2.8c-2.5,5.5-4.8,11.1-7.4,16.6c-2.5,5.1-4.6,10.4-6.6,15.6c-1.6,4.2-3.1,8.4-4.5,12.6c-1,3-2,6-3,9   c-1.3,3.3-2.2,6.8-2.6,10.4c-0.2,1.7-0.7,3.4-1,5c-0.9,4.1-0.6,8.5,0.8,12.5c0.1,0.2,0.2,0.5,0.3,0.7c0.4,1.7-0.4,3.1-2.1,3.1   c-2.2,0-4.6-0.2-6.5-1.3c-2.1-1.4-4.1-2.9-6-4.5c-1.5-1.2-2.3-3-2.3-4.8c0-2-0.2-3.9-0.3-5.9c0.2-5.3,1.1-10.5,2.6-15.6   c2.5-8.9,5.8-17.5,8.9-26.1c2.7-7.4,5.4-14.8,8.7-22c0.7-1.6,1.5-3.1,2.1-4.7c0.1-0.4-0.1-0.9-0.5-1c-0.1,0-0.2,0-0.3,0   c-2.2,0.6-4.3,1.1-6.4,1.8c-5.7,2-11.5,3.8-17.1,6.1c-6.4,2.4-12.5,5.6-18.2,9.4c-2.2,1.5-4,3.4-5.4,5.6c-1,1.6-1.9,3.2-1.7,5.1   c0,0.4,0,0.8-0.1,1.2c-0.1,0.9-1,1.6-1.9,1.5c-0.3,0-0.6-0.2-0.8-0.3c-1-0.8-1.9-1.8-2.8-2.8c-4.5,31.9,4,62.4,26.2,82.6   c40.3,36.6,110.4,25,156.6-25.8C242,175.2,253.9,128.8,243.4,91.9 M147.7,192.3c-0.2,0.7-0.8,0.6-1.3,0.7c-1.5,0.2-3.1-0.1-4.3-1   c-2.4-1.5-4.9-2.8-7.3-4.3c-1.2-0.8-1.3-0.7-2.5,0.3c-2,1.7-3.9,3.6-6.1,5.1c-4.2,3.2-9.7,4-14.6,2.1c-4-1.4-7.4-4.3-9.5-7.9   c-0.4-0.6-0.5-1.3-0.5-2.1c0.3-3.1,1.5-6.1,3.4-8.7c1.9-2.7,3.9-5.3,5.9-8c0.3-0.4,0.6-0.8,0.9-1.1c1-1.3,1-1.9,0.2-3.3   c-1.1-1.8-2.1-3.7-2.9-5.6c-1.5-3.8-1.5-8.1,0-11.9c1-3.3,2.7-6.2,5-8.7c2.1-2.1,4.5-3.8,7.2-5c3.7-1.6,7.3-1.2,11,0.1   c2.7,0.9,5,2.9,6.3,5.4c0.6,1.1,0.6,2.4,0.2,3.5c-0.9,2.9-2.3,5.6-4.1,8.1c-1.8,2.4-3.3,5-5.1,7.5c-1.7,2.3-3.5,4.4-5.3,6.7   c-0.6,0.8-1.3,1.6-1.9,2.4c-0.6,0.5-0.6,1.4,0,2c0,0,0.1,0.1,0.1,0.1c1.7,2.1,3.3,4.1,5,6.2s2.1,2.2,3.5-0.3   c1.6-2.8,2.9-5.7,3.9-8.8c0.5-1.8,1.2-3.6,0.4-5.5c-0.3-0.7,0.3-1.3,1.2-1.4c1.9-0.1,3.6,0.8,4.7,2.3c1.2,1.3,1.9,3.1,1.7,4.9   c-0.2,2.6-0.8,5.2-2,7.6c-1.2,2.3-2.5,4.5-3.8,6.8c-0.2,0.4-0.4,0.8-0.5,1.3c-0.5,1.2-0.4,1.5,0.6,2.3c1.9,1.5,3.9,2.9,6,4.1   c1.4,0.7,2.6,1.7,3.9,2.6C147.7,191.1,148,191.8,147.7,192.3"></path>		<path class="st3" d="M223.2,193.3c-2.7,4.1-5.7,8-8.9,11.9l17.8-1.8L223.2,193.3L223.2,193.3z"></path>		<path class="st4" d="M200.6,55.3c11.9-2.7,23.3-0.1,34.8,2.9c-0.3,0-0.6,0-1,0.1h-1c-7.7,0.3-14.9,2.2-21.3,6.8   c-1.9,1.5-3.7,3.1-5.3,4.8c-7.6,8-17.8,12.9-28.8,13.9c-4.5,0.6-9.1-0.1-13.2-1.9c-4.3-2.1-7-5.4-7.4-10.3   c-0.2-1.5,0.3-3.1,1.2-4.3c0.3,0.2,0.6,0.4,0.9,0.6c2.8,2.2,6.5,3,9.9,2.1c2.2-0.5,4.3-1.3,6.3-2.3c4-2.1,7.6-4.8,10.9-7.9   c0.2-0.2,0.3-0.4,0.4-0.6c-0.2-0.1-0.4-0.3-0.6-0.3c-5-1-10-1.7-15.1-1.1c-1.9,0.2-3.7,0.7-5.5,1.3c-3.2,1.1-5.7,3.5-6.9,6.6   c-0.2,0.3-0.3,0.7-0.6,1c-1.5-0.7-2.7-1.9-3.3-3.4c-1.7-3.6-1.5-7.9,0.6-11.3c1.5-2.5,3.5-4.6,5.9-6.3c5.8-4.1,12.5-6.5,19.5-7.1   c6-0.7,12.2-0.2,18,1.5c8.7,2.6,18,1.3,25.6-3.5c0.6-0.4,1.3-0.7,1.9-1c-3.4,4.4-7.2,8.4-11.5,11.9   C210.7,50.8,205.8,53.5,200.6,55.3"></path>		<path class="st2" d="M37.4,128.8c6.3-3.3,12.8-6.2,19.5-8.7c10.8-4.1,21.9-7.6,33.1-10.4c6-1.6,12.1-2.7,18.1-4.1   c5.6-1.3,11.2-2.4,16.8-3.3c-0.4-0.9-0.7-1.9-0.9-2.8c-0.8-3.4-0.9-6.9-0.3-10.4c0.5-3.1,1.2-6.2,2-9.2c0.4-1.3,1-2.6,1.8-3.7   l0.2-0.3c1-1.8,2.9-3,5-3.2c-1.1-2.3-2.4-4.4-4-6.4c-1.1-1.2-2.2-2.3-3.5-3.3c-7.3-5.7-13.8-11.2-20-16.8   c-15.8,8.3-30,19.4-42,32.7c-14.2,15.5-25,33.8-31.7,53.8C33.3,131.3,35.3,130,37.4,128.8"></path>		<path class="st5" d="M67.8,211.8c-2.1-1.4-4.1-2.9-6-4.5c-1.5-1.2-2.3-3-2.3-4.8c0-2-0.2-3.9-0.3-5.9c0.2-5.3,1.1-10.5,2.6-15.6   c2.5-8.9,5.8-17.5,8.9-26.1c2.7-7.4,5.4-14.8,8.7-22c0.7-1.6,1.5-3.1,2.1-4.7c0.1-0.4-0.1-0.9-0.5-1c-0.1,0-0.2,0-0.3,0   c-2.2,0.6-4.3,1.1-6.4,1.8c-5.7,2-11.5,3.8-17.1,6.1c-6.4,2.4-12.5,5.6-18.2,9.4c-1.7,1.1-3.2,2.5-4.4,4.1c0.5-0.4,1-0.8,1.5-1.1   c5.7-3.8,11.8-7,18.2-9.4c5.6-2.3,11.4-4.1,17.1-6.1c2.1-0.7,4.3-1.2,6.4-1.8c0.4,0,0.8,0.3,0.9,0.7c0,0.1,0,0.2,0,0.3   c-0.7,1.6-1.4,3.1-2.1,4.6c-3.3,7.2-6,14.6-8.8,22c-3.2,8.6-6.4,17.3-8.9,26.1c-1.5,5.1-2.4,10.3-2.6,15.6c0.1,2,0.3,3.9,0.3,5.9   c0,1.9,0.8,3.7,2.3,4.8c1.9,1.6,3.9,3.2,6,4.5c1.9,1.2,4.2,1.3,6.5,1.3c1.6,0,2.4-1.3,2.1-3C71.5,213.1,69.5,212.6,67.8,211.8"></path>		<path class="st5" d="M28.9,157.4c-0.9-0.8-1.8-1.7-2.6-2.6c-0.3,1.7-0.5,3.5-0.7,5.2l0.5,0.4c0.8,0.6,1.8,0.4,2.4-0.3   c0.2-0.2,0.3-0.5,0.3-0.8c0.1-0.4,0.1-0.8,0.1-1.2C28.9,157.9,28.9,157.7,28.9,157.4"></path>		<path class="st5" d="M153.8,113.6c-2.8,0.7-5.7,1.1-8.6,1.4c-5,0.3-10,0.8-14.9,1.6c-6.2,1-12.5,2.1-18.7,3.1   c-1.2,0.2-2.3,0.5-3.5,0.8c-3.9,0.8-4.3,0.9-5.9,3.7c1-0.3,2-0.5,3-0.7c1.2-0.2,2.3-0.6,3.5-0.8c6.2-1,12.5-2.1,18.7-3.1   c4.9-0.8,9.9-1.3,14.9-1.6c2.9-0.3,5.7-0.7,8.6-1.4c2-0.4,2.9-1.3,3.2-3L153.8,113.6"></path>		<path class="st4" d="M128.9,101.8c1-0.2,2.1-0.3,3.1-0.4c0.8-4.7,1.6-9.4,2.3-14.1c0.4-3,0.1-6.1-0.8-9c-0.2-0.5-0.4-1-0.6-1.5   c-0.9,0-1.7,0.5-2.1,1.3c-0.6,0.9-1.1,1.9-1.5,2.9c-0.8,2.9-1.4,5.8-1.9,8.8c-0.5,3-0.4,6,0.3,8.9   C128,99.8,128.4,100.9,128.9,101.8"></path>		<path class="st4" d="M73.1,9.7c3.1,2.1,6.3,4,9.2,6.2c4.6,3.4,8.1,7.9,11.6,12.3c3.6,4.9,7.6,9.4,12,13.6   c6.9,6.4,14.1,12.4,21.5,18.2c1.5,1.1,2.9,2.4,4.1,3.9c2.5,3,4.4,6.4,5.8,10.1c1.6,3.9,2.1,8.2,1.6,12.4   c-0.7,4.8-1.6,9.6-2.3,14.4c4.8-0.6,9.7-1,14.5-1.1c0.9,0,1.8,0.2,2.6,0.6c0.1-3,0.3-6.1,0.3-9.1c0.1-2.4-0.1-4.8-0.5-7.1   c-1-5.2-3.5-9.7-6.7-13.9c-4.2-5.4-9-10.3-14.3-14.7c-3.5-3-7-5.9-10.4-8.8c-0.5-0.5-1-1-1.5-1.5l0.3-0.3c0.5,0.3,1,0.6,1.5,0.9   c2.8,1.8,5.7,3.7,8.6,5.5c8,4.8,15,11.2,20.6,18.7c0.3,0.4,0.6,0.7,1.2,1.3c0-0.3,0-0.7,0-1c-0.7-3.7-1.9-7.3-3.5-10.7   c-2.6-5.7-7.1-10.4-12.8-13.1c-3.9-1.9-7.8-3.9-11.7-5.9c-9.5-4.9-18.8-10.3-26.6-17.9c-6-5.9-13.2-9.7-21.1-12.3   c-1.5-0.5-3-0.9-4.5-1.3C72.6,9.3,72.8,9.6,73.1,9.7"></path>		<path class="st5" d="M129.7,137.1c-2.8,1.1-5.4,2.3-7.4,4.9l-0.3,0.4c1.5-1,3.1-1.8,4.8-2.4c0.7-0.3,1.6-0.8,2.3,0.1   c0.7,0.9,0.1,1.6-0.3,2.4c-2.2,4.4-4.8,8.7-7.8,12.6c-1.1,1.4-2.1,2.8-3.2,4.2c0.4-0.2,0.7-0.4,1.1-0.6c0.2-0.2,0.3-0.3,0.5-0.6   c1.5-2,3-4.1,4.6-6.1c3-3.9,5.7-8.1,7.8-12.6c0.3-0.6,0.8-1.3,0.4-2c-0.4-0.3-0.9-0.6-1.3-0.8   C130.5,136.8,130.1,136.9,129.7,137.1"></path>		<path class="st5" d="M144.1,193.7c-1.3-0.9-2.6-1.9-3.9-2.6c-1.5-0.8-2.8-1.7-4.2-2.7l-1.3-0.8c-1.2-0.8-1.3-0.7-2.5,0.3   c-2,1.7-3.9,3.6-6.1,5.1c-4.2,3.2-9.7,4-14.6,2.1c-0.6-0.2-1.2-0.5-1.8-0.7c-1.4,0.2-2.8-0.6-3.2-2c-1.8-1.4-3.4-3.2-4.6-5.2   c-0.4-0.6-0.5-1.3-0.5-2.1c0.3-3.1,1.5-6.1,3.4-8.7c1.9-2.7,4-5.3,5.9-8c0.3-0.4,0.6-0.8,0.9-1.1c1-1.3,1-1.9,0.2-3.3   c-1.1-1.8-2.1-3.7-2.9-5.6c-1.5-3.8-1.5-8.1,0-11.9c0.8-2.6,2.1-5.1,3.8-7.4c-0.6,0.5-1.2,1-1.7,1.6c-2.3,2.5-4,5.5-5,8.7   c-1.5,3.8-1.5,8.1,0,11.9c0.9,1.9,1.8,3.8,2.9,5.6c0.8,1.4,0.8,2-0.2,3.3c-0.3,0.4-0.6,0.8-0.9,1.1c-2,2.7-4,5.3-5.9,8   c-1.9,2.5-3.1,5.5-3.4,8.7c-0.1,0.7,0.1,1.4,0.5,2.1c2.1,3.7,5.5,6.5,9.5,7.9c4.9,1.9,10.5,1.1,14.6-2.1c2.2-1.5,4.1-3.4,6.1-5.1   c1.2-1,1.3-1.1,2.5-0.3c2.4,1.5,4.9,2.8,7.3,4.3c1.3,0.9,2.8,1.2,4.3,1c0.6-0.1,1.1,0,1.3-0.7C145,194.7,144.7,194,144.1,193.7"></path>		<path class="st5" d="M122.8,186c1.1-1,2.1-2.1,3.1-3.1s0.8-1.2,0-2.1c-2.2-2.4-4.4-4.8-6.6-7.2c-1-1-1.5-1.1-2.4-0.1   c-0.5,0.5-0.9,1.1-1.3,1.7c-0.1,0.2-0.2,0.3-0.3,0.5c0.4,0.1,0.8,0.4,1.1,0.8c2.2,2.4,4.4,4.8,6.6,7.2c0.9,0.9,1,1.1,0,2.1   L122.8,186"></path>		<path class="st5" d="M131,174.6c1.6-2.8,2.9-5.7,3.9-8.8c0.4-1.2,0.7-2.4,0.8-3.6c-0.7-0.2-1.4-0.3-2.1-0.3   c-0.9,0-1.5,0.6-1.2,1.4c0.8,1.9,0.1,3.7-0.4,5.5c-0.7,2.6-1.8,5.1-3.1,7.5C129.6,176.8,130.1,176.3,131,174.6"></path>		<path class="st5" d="M219.7,156.9c-2,2.3-4.1,4.6-6.2,6.8c3.2-3.1,6.2-6.3,9.2-9.7c1.4-1.6,2.8-3.1,4.3-4.6   c-0.1,0-0.1,0.1-0.1,0.1C224.4,151.9,221.9,154.3,219.7,156.9"></path>		<path class="st5" d="M222.2,101.3c2.9-2.7,5.5-5.7,7.6-9.1c0.9-1.4,0.6-1.8-0.9-2c-3.1-0.1-6.3,0.5-9.2,1.7   c-9.7,3.5-18.7,8.7-26.7,15.2c-5.1,4.2-10.3,8.3-14.9,13c3.8-3.6,7.9-6.8,11.9-10.1c8-6.5,17-11.7,26.7-15.2   c2.9-1.2,6-1.8,9.2-1.7c1.5,0.1,1.8,0.6,0.9,2C225.5,97.3,224,99.4,222.2,101.3"></path>		<path class="st5" d="M203,189.3c-0.9,0.6-1.8,1.1-2.7,1.6c-4,2-8,4-12,6.1c-2.5,1.3-5.2,2.2-8,2.6c-2.9,0.5-5.9,0.8-8.9,1   c-0.9,0.1-1.8,0.1-2.6-0.2c-3.6-1.4-7.1-3-9.5-6.4c-3.9-5.4-5.6-11.2-4.3-17.7c1.2-5.8,3.9-10.9,6.9-15.9c0.6-0.7,1.1-1.4,1.5-2.2   c0.9-2.7,3.6-4.4,4.3-7.2c-2.4-1.2-4.8-2.4-7.1-3.7c-2.3-1.2-4.1-3.2-5-5.6c-1-2.6-2.6-5-3-7.9c-0.5-2.7,0-5.4,1.4-7.7   c3.9-6.7,8.7-12.9,14.1-18.4c-0.8,0.8-1.5,1.5-2.3,2.3c-5.7,5.7-10.6,12.2-14.7,19.1c-1.4,2.3-1.9,5.1-1.4,7.8   c0.4,2.9,2,5.3,3,7.9c0.9,2.4,2.7,4.4,5,5.6c2.4,1.3,4.8,2.5,7.1,3.7c-0.7,2.8-3.4,4.5-4.3,7.2c-0.4,0.8-0.9,1.5-1.5,2.2   c-3,5-5.7,10.1-6.9,15.9c-1.3,6.5,0.5,12.3,4.3,17.7c2.4,3.4,5.8,5,9.5,6.4c0.9,0.3,1.8,0.3,2.6,0.2c3-0.3,5.9-0.6,8.9-1   c2.8-0.4,5.5-1.3,8-2.6c3.9-2.1,8-4.1,12-6.1c0.9-0.4,1.9-1,2.7-1.6c7.1-5.2,13.8-10.9,20-17.2l0.5-0.5   C215.1,179.9,209.2,184.9,203,189.3"></path>		<path class="st5" d="M227.5,114.3c-3.4,2.2-6.5,4.7-9.8,7.1c-0.8,0.6-1.7,1.2-2.7,1.6c-0.6,0.4-1.4,0.5-2.1,0.3   c-2.1-0.8-4.2-1.7-5.2-3.9c-0.5-1.1-1.2-2.1-1.7-3.2c-0.4-0.7-0.5-1.6-0.4-2.4c-0.4,0.3-0.8,0.5-1.2,0.8c-1.9,1.3-2.3,2.6-1.4,4.6   c0.5,1.1,1.2,2.1,1.7,3.2c1,2.3,3.1,3.1,5.2,3.9c0.7,0.1,1.5,0,2.1-0.3c0.9-0.4,1.9-1,2.7-1.6c3.3-2.4,6.4-4.9,9.8-7.1   c3-2,5.7-4.3,8.1-6.9C230.9,111.7,229.2,113,227.5,114.3"></path>		<path class="st5" d="M190.2,153.3c3.9-3.4,8.1-6.5,12.5-9.4c1.7-1.2,3.3-2.6,4.7-4.1c0.1-0.1,0.3-0.3,0.4-0.5   c-0.7,0.6-1.4,1.2-2.2,1.7c-4.4,2.8-8.6,5.9-12.5,9.4c-3.6,2.9-7.1,6.1-10.3,9.4C185.2,157.6,187.7,155.4,190.2,153.3"></path>		<path class="st4" d="M232.2,203.5L32.9,223.6c-10.5-17-15.3-37.7-13.8-60.5c2.1-31.3,16.1-62.7,39.4-88.3   c9.2-10.1,19.6-19,31-26.5c-14.4,8.4-27.4,19-38.6,31.4C1.7,133.8-3.4,209.4,39.6,248.4c36.1,32.8,94.7,29.3,141.7-4.9l44.9-4.5   L232.2,203.5z M164.6,252.3c-17.6,8.3-36.2,12.6-53.9,12.6c-15.1,0.2-30-3.2-43.5-9.9l113.3-11.4   C175.3,246.8,170,249.7,164.6,252.3"></path>		<path class="st1" d="M53.4,246.3l1.9-10.7c0.3-1.8,0.6-3.5,0.8-4.8l3.2-0.3l-0.3,2.7l0,0c1.1-1.9,3.1-3.2,5.3-3.5   c2.4-0.2,3.5,1.1,3.6,2.8c1.1-2,3.1-3.4,5.4-3.7c2.1-0.2,3.7,1,3.7,3.7c0,0.9-0.1,1.8-0.3,2.6l-1.7,9.1l-3.5,0.4l1.6-8.7   c0.1-0.7,0.2-1.3,0.2-2c0-1.3-0.5-2.1-1.9-2c-1.7,0.2-3.5,2.4-4.1,5.7L66,245l-3.5,0.4l1.6-8.8c0.1-0.6,0.2-1.2,0.2-1.8   c0-1.2-0.3-2.1-1.8-2c-1.7,0.2-3.6,2.6-4.2,5.8l-1.3,7.4L53.4,246.3z"></path>		<path class="st1" d="M105.7,231.8c0,5.2-3.6,10-8.8,10.5c-3.8,0.4-6.2-2-6.2-5.6c0-5.2,3.6-10,8.8-10.5   C103.6,225.7,105.7,228.4,105.7,231.8 M94.4,236.1c0,2.1,1.1,3.4,3,3.3c2.7-0.3,4.5-4.2,4.5-7.2c0-1.6-0.7-3.4-2.9-3.2   C96.2,229.2,94.5,233.3,94.4,236.1"></path>		<path class="st1" d="M122.9,224l1,7.5c0.2,1.8,0.4,2.9,0.4,3.9h0.1c0.4-1,0.8-2.1,1.7-4l3.8-8l4-0.4l-8.5,16.1l-3.7,0.4l-2.6-14.9   L122.9,224z"></path>		<path class="st1" d="M144.7,237l2.9-15.5l3.6-0.4l-2.9,15.5L144.7,237z M148.2,217.3c0-1.3,0.9-2.3,2.2-2.4   c0.9-0.2,1.8,0.5,1.9,1.4c0,0.1,0,0.3,0,0.4c0,1.3-1,2.3-2.3,2.4c-0.9,0.2-1.7-0.4-1.9-1.3C148.1,217.6,148.1,217.5,148.2,217.3"></path>		<path class="st1" d="M163.7,235.1l2-10.7c0.4-1.9,0.6-3.5,0.8-4.8l3.2-0.3l-0.3,2.8h0.1c1.1-2,3.2-3.4,5.5-3.6   c2.1-0.2,3.9,0.9,3.9,3.8c0,0.9-0.1,1.7-0.3,2.6l-1.7,9l-3.6,0.4l1.6-8.8c0.1-0.6,0.2-1.2,0.2-1.8c0-1.3-0.5-2.1-1.9-2   c-1.7,0.2-3.8,2.4-4.4,6l-1.3,7.2L163.7,235.1z"></path>		<path class="st1" d="M192.7,234.8c1.3,0.5,2.6,0.6,4,0.5c2.4-0.2,4.2-1.6,4.9-5.1l0.4-1.8H202c-1,1.8-2.8,2.9-4.8,3.2   c-3,0.3-4.8-2-4.8-4.9c0-5.7,4.3-10.6,10-11.1c1.8-0.2,3.6,0,5.3,0.5l-2.3,12.8c-0.6,3-1.4,5.5-3.1,7.1c-1.6,1.3-3.6,2.1-5.7,2.3   c-1.6,0.2-3.2,0-4.7-0.6L192.7,234.8z M203.7,218.6c-0.6-0.2-1.3-0.3-2-0.2c-3.2,0.3-5.4,4-5.4,7.3c0,1.6,0.6,3,2.4,2.9   s3.6-2.5,4.1-5.3L203.7,218.6z"></path>	</g></g></svg>